<!DOCTYPE svg PUBLIC "-//W3C//DTD SVG 20010904//EN" "http://www.w3.org/TR/2001/REC-SVG-20010904/DTD/svg10.dtd">
<svg version="1.0" xmlns="http://www.w3.org/2000/svg" width="1366px" height="768px" viewBox="0 0 13660 7680" preserveAspectRatio="xMidYMid meet">
<g id="layer101" fill="#ffffff" stroke="none">
 <path d="M3882 6890 c-48 -30 -72 -75 -72 -140 0 -98 60 -160 155 -160 l51 0 292 -729 292 -729 -14 -39 c-29 -81 -36 -186 -36 -507 0 -179 -3 -326 -6 -326 -8 0 -458 192 -466 199 -3 3 -29 191 -57 416 -29 226 -54 422 -57 438 l-6 27 -203 0 c-185 0 -204 -2 -209 -17 -2 -10 -17 -140 -32 -290 -25 -242 -29 -268 -40 -237 -22 66 -65 94 -141 94 -89 0 -143 -55 -143 -145 0 -90 54 -145 143 -145 59 0 102 21 128 63 l20 32 -6 -35 c-9 -60 -113 -1169 -141 -1505 -14 -176 -29 -329 -33 -339 -4 -11 -13 46 -20 130 -47 567 -150 1556 -221 2142 -17 133 -30 245 -30 247 0 3 -94 5 -209 5 l-210 0 -6 -42 c-10 -74 -395 -3534 -395 -3552 0 -15 17 -16 177 -14 l178 3 17 155 c45 400 113 1099 173 1760 36 399 69 757 73 795 7 66 9 54 35 -190 110 -1038 155 -1455 207 -1915 33 -289 63 -544 66 -567 l6 -43 169 0 c167 0 169 0 173 23 3 12 62 623 132 1357 69 734 128 1342 131 1350 3 8 32 -228 64 -525 60 -559 184 -1678 222 -2010 l22 -190 182 -3 183 -2 -5 27 c-13 71 -335 2649 -333 2660 2 7 87 -24 233 -87 l230 -99 6 -628 c5 -560 7 -634 23 -687 55 -186 169 -295 342 -327 82 -16 235 -5 309 21 110 38 202 126 241 230 9 25 20 48 23 53 11 12 281 -674 281 -715 0 -51 35 -178 65 -237 14 -29 41 -69 61 -90 28 -31 78 -146 254 -585 121 -300 220 -549 220 -554 0 -4 -13 -13 -30 -20 -46 -21 -73 -67 -78 -133 -8 -106 45 -170 149 -177 106 -8 170 45 177 149 6 75 -17 123 -74 158 -28 17 -42 31 -39 41 3 8 160 402 349 875 l345 860 1 -367 0 -368 155 0 155 0 0 515 0 516 33 -37 c47 -54 137 -109 212 -129 131 -36 294 -1 359 76 l26 30 1032 -443 1033 -443 5 -55 c3 -30 11 -65 18 -78 21 -37 71 -62 127 -62 91 0 145 54 145 145 0 91 -54 145 -145 145 -52 0 -110 -27 -121 -55 -4 -8 -11 -15 -16 -15 -6 0 -473 199 -1039 442 l-1028 441 15 28 c8 15 22 56 31 91 15 57 17 163 20 1123 l3 1060 253 632 252 633 53 0 c105 0 163 52 170 151 8 108 -54 179 -156 179 -98 0 -160 -50 -170 -135 -7 -69 5 -112 45 -151 l36 -36 -241 -602 -241 -601 -1 128 0 127 -155 0 -155 0 0 -517 0 -518 -199 -500 -200 -500 0 1018 -1 1017 -155 0 -155 0 -2 -1109 -3 -1108 -338 145 -338 144 94 97 c180 186 244 280 284 411 25 84 32 936 8 1053 -43 213 -162 342 -352 382 -102 22 -302 19 -396 -4 -101 -26 -151 -53 -211 -115 -63 -63 -100 -131 -128 -233 -20 -73 -22 -105 -26 -540 l-4 -463 166 0 166 0 0 373 c0 204 5 401 10 437 25 154 92 223 219 223 121 -1 187 -46 216 -148 24 -82 17 -789 -8 -855 -26 -67 -105 -166 -257 -323 l-136 -141 -305 131 -304 130 -3 92 -3 91 -212 0 c-155 0 -218 3 -229 13 -9 6 -67 138 -128 292 l-112 280 4 160 c3 143 6 165 26 207 71 144 291 121 337 -35 12 -41 15 -115 15 -379 l0 -328 151 0 151 0 -5 373 c-5 407 -10 444 -67 558 -56 110 -153 183 -281 210 -72 16 -281 6 -339 -15 -71 -26 -138 -76 -180 -134 -22 -31 -40 -47 -43 -40 -3 7 -131 328 -286 713 l-281 699 30 24 c43 33 60 72 60 134 0 98 -61 158 -160 158 -37 0 -66 -6 -88 -20z m1058 -2604 c50 -126 90 -230 88 -231 -2 -2 -44 14 -93 35 l-90 38 -3 198 c-1 109 0 196 2 193 2 -2 45 -107 96 -233z m2930 -1255 c-5 -30 -17 -65 -26 -78 -18 -28 -71 -63 -96 -63 -9 0 -63 20 -120 44 -138 59 -148 73 -148 210 l0 101 198 494 197 494 3 -574 c1 -354 -2 -594 -8 -628z m-2939 1033 c46 -19 85 -37 88 -40 2 -2 -37 -4 -87 -4 l-92 0 0 40 c0 22 2 40 4 40 2 0 42 -16 87 -36z m874 -374 c143 -62 271 -116 283 -121 23 -9 21 -12 -58 -97 -113 -120 -200 -229 -222 -279 -34 -77 -40 -146 -47 -512 l-6 -364 -127 319 -127 319 9 85 c5 47 9 240 9 429 1 270 4 342 14 338 6 -3 129 -55 272 -117z m-626 -2 l41 -103 0 -250 c0 -266 -6 -308 -47 -364 -33 -43 -78 -61 -151 -61 -73 0 -116 26 -152 90 l-25 45 -3 373 -3 372 149 0 150 0 41 -102z m41 35 l-1 -68 -24 59 c-31 73 -31 76 0 76 24 0 25 -2 25 -67z m1616 -475 l334 -143 0 -285 0 -285 -364 -910 c-326 -814 -366 -910 -386 -910 -21 0 -99 184 -433 1023 l-17 42 48 -24 c79 -40 152 -57 272 -62 147 -7 257 12 357 61 83 41 127 88 172 186 53 112 61 197 61 625 l0 384 -160 0 -160 0 0 -343 c0 -275 -3 -354 -15 -401 -31 -117 -74 -156 -185 -164 -109 -7 -178 27 -223 112 -22 40 -22 48 -22 426 l0 385 26 56 c47 100 306 384 342 375 10 -2 169 -69 353 -148z"/>
 <path d="M8663 5362 c-105 -38 -165 -94 -206 -194 -21 -50 -22 -72 -25 -388 -2 -226 0 -359 8 -410 32 -199 137 -359 314 -477 38 -26 134 -77 215 -114 l146 -68 3 -326 c1 -207 -2 -341 -8 -366 -25 -90 -112 -140 -218 -124 -67 10 -99 30 -124 78 -22 41 -23 51 -26 385 l-3 342 -140 0 -141 0 5 -372 c4 -402 8 -431 63 -540 71 -140 204 -208 409 -208 248 0 399 104 462 317 16 53 18 165 24 1223 3 641 10 1180 14 1198 l7 33 -143 -3 -144 -3 -9 -67 -9 -66 -50 54 c-28 31 -73 67 -101 82 -44 23 -65 26 -161 29 -87 3 -121 0 -162 -15z m335 -297 c47 -20 79 -50 103 -97 18 -35 19 -65 19 -518 l0 -481 -22 6 c-53 16 -182 91 -226 130 -26 24 -60 65 -75 92 -52 97 -59 146 -64 437 -5 284 -1 322 40 380 41 59 148 83 225 51z"/>
 <path d="M10900 5364 c-148 -40 -240 -141 -287 -314 -17 -60 -18 -138 -18 -1065 0 -937 1 -1004 18 -1064 54 -189 168 -299 343 -332 81 -15 235 -5 309 20 120 42 212 138 254 267 34 103 40 222 41 702 l0 442 -340 0 -341 0 3 453 c3 450 3 452 26 499 71 144 291 121 337 -35 12 -41 15 -115 15 -379 l0 -328 151 0 151 0 -5 373 c-5 407 -10 444 -67 558 -54 106 -151 181 -271 208 -65 15 -255 12 -319 -5z m360 -1926 c0 -374 -4 -409 -47 -467 -33 -43 -78 -61 -151 -61 -73 0 -116 26 -152 90 l-25 45 -3 373 -3 372 190 0 191 0 0 -352z"/>
 <path d="M9730 3980 l0 -1360 130 0 129 0 6 33 c3 17 6 57 8 87 l2 55 17 -30 c28 -53 98 -116 156 -142 42 -20 73 -26 131 -27 119 -2 111 -15 111 188 l0 175 -37 -15 c-25 -11 -60 -15 -108 -12 -95 4 -158 37 -202 102 l-33 48 0 1129 0 1129 -155 0 -155 0 0 -1360z"/>
 </g>

</svg>